<?xml version="1.0" encoding="UTF-8" standalone="no"?>
<!-- Created with Inkscape (http://www.inkscape.org/) -->

<svg
   xmlns:dc="http://purl.org/dc/elements/1.1/"
   xmlns:cc="http://creativecommons.org/ns#"
   xmlns:rdf="http://www.w3.org/1999/02/22-rdf-syntax-ns#"
   xmlns:svg="http://www.w3.org/2000/svg"
   xmlns="http://www.w3.org/2000/svg"
   xmlns:xlink="http://www.w3.org/1999/xlink"
   xmlns:sodipodi="http://sodipodi.sourceforge.net/DTD/sodipodi-0.dtd"
   xmlns:inkscape="http://www.inkscape.org/namespaces/inkscape"
   width="128"
   height="128"
   viewBox="0 0 128 128"
   id="svg2"
   version="1.1"
   inkscape:version="0.91 r13725"
   sodipodi:docname="beta_icon.svg"
   inkscape:export-filename="D:\src\android-money-manager-ex\app\src\beta\res\mipmap-xxxhdpi\ic_launcher.png"
   inkscape:export-xdpi="135"
   inkscape:export-ydpi="135">
  <title
     id="title4196">Beta Icon</title>
  <defs
     id="defs4">
    <linearGradient
       id="linearGradient3924">
      <stop
         id="stop3926"
         offset="0"
         style="stop-color:#284c27;stop-opacity:1;" />
      <stop
         id="stop3928"
         offset="1"
         style="stop-color:#2e5b2c;stop-opacity:1;" />
    </linearGradient>
    <linearGradient
       id="linearGradient3905">
      <stop
         id="stop3907"
         offset="0"
         style="stop-color:#49a035;stop-opacity:1;" />
      <stop
         id="stop3909"
         offset="1"
         style="stop-color:#8cc625;stop-opacity:1;" />
    </linearGradient>
    <linearGradient
       id="linearGradient3895">
      <stop
         id="stop3897"
         offset="0"
         style="stop-color:#256c32;stop-opacity:1;" />
      <stop
         id="stop3899"
         offset="1"
         style="stop-color:#4eb133;stop-opacity:1;" />
    </linearGradient>
    <linearGradient
       id="linearGradient3881">
      <stop
         id="stop3883"
         offset="0"
         style="stop-color:#4aa035;stop-opacity:1;" />
      <stop
         id="stop3885"
         offset="1"
         style="stop-color:#f8fad2;stop-opacity:1;" />
    </linearGradient>
    <linearGradient
       y2="11.779408"
       x2="180.49806"
       y1="353.25195"
       x1="180.49806"
       gradientUnits="userSpaceOnUse"
       id="linearGradient3893"
       xlink:href="#linearGradient3881"
       inkscape:collect="always" />
    <linearGradient
       gradientUnits="userSpaceOnUse"
       y2="11.895205"
       x2="180.91829"
       y1="352.83173"
       x1="180.91829"
       id="linearGradient3901"
       xlink:href="#linearGradient3895"
       inkscape:collect="always" />
    <linearGradient
       gradientUnits="userSpaceOnUse"
       y2="10.959585"
       x2="180.74648"
       y1="353.00354"
       x1="180.74648"
       id="linearGradient3911"
       xlink:href="#linearGradient3905"
       inkscape:collect="always" />
    <linearGradient
       gradientUnits="userSpaceOnUse"
       y2="84.874962"
       x2="182.68535"
       y1="279.71509"
       x1="182.68535"
       id="linearGradient3930"
       xlink:href="#linearGradient3924"
       inkscape:collect="always" />
  </defs>
  <sodipodi:namedview
     id="base"
     pagecolor="#ffffff"
     bordercolor="#666666"
     borderopacity="1.0"
     inkscape:pageopacity="0.0"
     inkscape:pageshadow="2"
     inkscape:zoom="3.959798"
     inkscape:cx="22.615735"
     inkscape:cy="69.022086"
     inkscape:document-units="px"
     inkscape:current-layer="layer1"
     showgrid="false"
     inkscape:window-width="954"
     inkscape:window-height="634"
     inkscape:window-x="260"
     inkscape:window-y="260"
     inkscape:window-maximized="0"
     units="px" />
  <metadata
     id="metadata7">
    <rdf:RDF>
      <cc:Work
         rdf:about="">
        <dc:format>image/svg+xml</dc:format>
        <dc:type
           rdf:resource="http://purl.org/dc/dcmitype/StillImage" />
        <dc:title>Beta Icon</dc:title>
      </cc:Work>
    </rdf:RDF>
  </metadata>
  <g
     inkscape:label="Layer 1"
     inkscape:groupmode="layer"
     id="layer1"
     transform="translate(0,-924.36216)">
    <g
       transform="translate(-0.2857099,692.64792)"
       style="display:inline"
       inkscape:label="MMEx"
       id="layer2">
      <g
         id="g3973">
        <circle
           style="fill:url(#linearGradient3901);fill-opacity:1;stroke:none"
           id="path3879"
           transform="matrix(0.37481698,0,0,0.37481698,-3.7481692,227.6896)"
           cx="180.75"
           cy="182.25"
           r="170.75" />
        <circle
           transform="matrix(0.35743416,0,0,0.35743416,-0.60622514,230.85762)"
           id="path3889"
           style="fill:url(#linearGradient3893);fill-opacity:1;stroke:none"
           cx="180.75"
           cy="182.25"
           r="170.75" />
        <circle
           transform="matrix(0.3378785,0,0,0.3378785,2.928462,234.42164)"
           id="path3903"
           style="fill:url(#linearGradient3911);fill-opacity:1;stroke:none"
           cx="180.75"
           cy="182.25"
           r="170.75" />
        <g
           transform="matrix(0.35786444,0,0,0.38464775,-2.7826082,229.21739)"
           style="font-style:normal;font-weight:normal;font-size:13.14225578px;line-height:125%;font-family:'Bitstream Vera Sans';letter-spacing:0px;word-spacing:0px;display:inline;fill:#000000;fill-opacity:1;stroke:none"
           id="text3913">
          <path
             style="font-variant:normal;font-weight:bold;font-stretch:normal;font-size:206.52116394px;font-family:FreeSans;-inkscape-font-specification:'FreeSans Bold';text-align:start;writing-mode:lr-tb;text-anchor:start;fill:url(#linearGradient3930);fill-opacity:1"
             d="m 172,85 0,13.28125 c -15.31597,0.468778 -27.33609,3.57744 -36.21875,11.28125 -9.55493,8.28686 -13.40626,20.28945 -13.40625,35.5625 -1e-5,12.13301 4.19589,22.10799 10.4375,28.53125 6.24166,6.42331 15.67635,12.72996 30.40625,15.78125 L 172,191.25 l 0,44.09375 c -5.32532,-0.91406 -9.67517,-2.69521 -13.25,-5.53125 -5.57765,-4.42495 -8.28133,-13.2033 -8.8125,-21.625 l -31.8125,0 c 0.9296,16.70061 5.43356,32.46415 15.6875,41.28125 8.77607,7.54631 22.7747,11.9115 38.1875,13.0625 L 172,280 l 17,0 0,-17.4375 c 14.8881,-1.01688 27.8768,-4.27382 36.1875,-12.28125 10.52649,-10.14237 13.625,-23.18709 13.625,-39.03125 0,-12.27558 -4.17659,-21.00917 -10.25,-27.75 -6.14443,-6.81964 -12.17333,-12.07776 -27.84375,-16.34375 -5.02516,-1.36801 -8.62755,-2.30034 -11.71875,-3.0625 l 0,-38.90625 c 10.2914,2.53328 14.99086,9.02018 15.78125,21.125 l 31.90625,0 c -1.2e-4,-8.13607 -1.42565,-15.23366 -4,-21.40625 -2.60533,-6.24685 -7.74658,-13.09743 -11.5625,-16.5625 -3.88692,-3.52955 -8.21788,-5.79892 -13.75,-7.28125 -3.31238,-0.88755 -11.08929,-1.88905 -15.125,-2.5 -0.88232,-0.133571 -1.99502,-0.221897 -3.25,-0.28125 L 189,85 Z m 0,39.15625 0,36.125 c -5.58102,-1.28494 -8.13676,-2.18063 -11,-4.25 -3.8854,-2.80812 -5.78125,-7.13405 -5.78125,-12.84375 0,-5.85222 0.30027,-10.4669 4.78125,-13.9375 3.60947,-2.7956 6.94036,-4.49855 12,-5.09375 z m 17,70.71875 c 6.10266,1.51703 8.91559,2.93882 12.21875,5.6875 4.11679,3.42573 5.81174,9.11888 5.59375,14.5625 -0.21799,5.44362 -2.0851,11.66369 -7.375,15.40625 -3.54833,2.51042 -6.2318,4.18827 -10.4375,5 z"
             transform="scale(1.0367459,0.9645565)"
             id="path3918"
             inkscape:connector-curvature="0"
             sodipodi:nodetypes="ccssscccsccsccccssssccccsssscccccsssccssscc" />
        </g>
      </g>
    </g>
    <circle
       style="fill:#ff0000;fill-rule:evenodd;stroke:none;stroke-width:1px;stroke-linecap:butt;stroke-linejoin:miter;stroke-opacity:1"
       id="path3390"
       cx="106.78064"
       cy="1030.2245"
       r="19.790791" />
    <text
       xml:space="preserve"
       style="font-style:normal;font-weight:normal;font-size:41.04756546px;line-height:125%;font-family:sans-serif;letter-spacing:0px;word-spacing:0px;fill:#ffffff;fill-opacity:1;stroke:none;stroke-width:1px;stroke-linecap:butt;stroke-linejoin:miter;stroke-opacity:1"
       x="93.220306"
       y="1043.7848"
       id="text4192"
       sodipodi:linespacing="125%"><tspan
         sodipodi:role="line"
         id="tspan4194"
         x="93.220306"
         y="1043.7848">𝛃</tspan></text>
  </g>
</svg>
